# xmcd
# 
# Track frame offsets:
#     150
#     18942
#     37200
#     55327
#     74102
#     97918
#     114722
#     130895
#     149361
#     170028
#     188090
# 
# Disc length: 2834
# 
# Revision: 0
# Processed by: cddbd v1.5.2PL0 Copyright (c) Steve Scherf et al.
# Submitted via: fre:ac v1.0.31
# 
DISCID=a60b100b
DTITLE=The Weight Band - World Gone Mad
DYEAR=2017
DGENRE=Country
TTITLE0=World Gone Mad
TTITLE1=Fire In the Hole
TTITLE2=Deal (feat. Jackie Greene)
TTITLE3=I Wish You Were Here Tonight
TTITLE4=Common Man
TTITLE5=Heat of the Moment
TTITLE6=You're Never To Old To Rock 'N Roll
TTITLE7=Big Legged Sadie
TTITLE8=Day of the Locusts
TTITLE9=Every Step of the Way
TTITLE10=Remedy (Live) [Bonus Track]
EXTD=
EXTT0=
EXTT1=
EXTT2=
EXTT3=
EXTT4=
EXTT5=
EXTT6=
EXTT7=
EXTT8=
EXTT9=
EXTT10=
PLAYORDER=
